<svg version="1.1" xmlns="http://www.w3.org/2000/svg" xmlns:xlink="http://www.w3.org/1999/xlink" width="300" height="300"><g data-paper-data="{&quot;description&quot;:&quot;Logo for youyd\n==============\n\nThis logo was generated by MarkMaker and is composed of elements designed by others.\n\nThe font is Leckerli One designed by Gesine Todt and released under the OFL license via Google Fonts: https://www.google.com/fonts/specimen/Leckerli One. The font includes this copyright statement: Copyright (c) 2011 Gesine Todt (www.gesine-todt.de hallo@gesine-todt.de), with Reserved Font Names \\\&quot;Leckerli\\\n\nMarkMaker uses semantic data from the Princeton University WordNet database http://wordnet.princeton.edu and font descriptions from Google Fonts https://www.google.com/fonts.\n\nThis design is inspired by designs that past users of MarkMaker have liked. As a result, it may be visually similar to past or future designs generated by the system. There is no guarantee that it is unique, original, or suitable in any way for use as a logo.\n\n&quot;}" fill="#0088f5" fill-rule="nonzero" stroke="none" stroke-width="1" stroke-linecap="butt" stroke-linejoin="miter" stroke-miterlimit="10" stroke-dasharray="" stroke-dashoffset="0" font-family="none" font-weight="none" font-size="none" text-anchor="none" style="mix-blend-mode: normal"><g data-paper-data="{&quot;elementType&quot;:&quot;logo&quot;}"><g data-paper-data="{&quot;elementType&quot;:&quot;text&quot;}"><g data-paper-data="{&quot;baseline&quot;:75,&quot;elementType&quot;:&quot;row&quot;}"><g data-paper-data="{&quot;baselineProportion&quot;:0.732421875,&quot;fontSize&quot;:100,&quot;baseline&quot;:75,&quot;elementType&quot;:&quot;word&quot;}"><path d="M23.61207,149.4569c0,3.10345 1.37069,4.65517 4.11207,4.65517c3,0 5.66379,-1.81034 7.99138,-5.43103c0.62069,-2.74138 1.79741,-7.5 3.53017,-14.27586c1.73276,-6.77586 2.75431,-10.93966 3.06466,-12.49138c0.67241,-3.05172 1.43534,-5.48276 2.28879,-7.2931c0.85345,-1.81034 1.92672,-2.71552 3.21983,-2.71552c2.37931,0 4.20259,0.53017 5.46983,1.59052c1.26724,1.06034 1.90086,2.97414 1.90086,5.74138c0,2.76724 -0.93103,5.88362 -2.7931,9.34914c-0.31034,1.86207 -0.64655,3.80172 -1.00862,5.81897c-0.36207,2.01724 -0.82759,4.65517 -1.39655,7.91379c-0.56897,3.25862 -1.62931,8.7931 -3.18103,16.60345c6.10345,-2.48276 9.84052,-4.52586 11.21121,-6.12931c1.37069,-1.60345 2.44397,-2.40517 3.21983,-2.40517c0.77586,0 1.16379,0.80172 1.16379,2.40517c0,1.60345 -0.47845,3 -1.43534,4.18966c-0.9569,1.18966 -2.4569,2.53448 -4.5,4.03448c-2.0431,1.5 -5.78017,3.41379 -11.21121,5.74138c-2.68966,11.48276 -7.60345,18.72414 -14.74138,21.72414c-1.96552,0.82759 -4.03448,1.24138 -6.2069,1.24138c-4.65517,0 -8.35345,-0.87931 -11.09483,-2.63793c-3.15517,-1.96552 -4.73276,-4.88793 -4.73276,-8.76724c0,-3.46552 5.17241,-7.13793 15.51724,-11.01724c5.17241,-1.91379 8.30172,-3.02586 9.38793,-3.33621c0,-1.24138 0.12931,-2.84483 0.38793,-4.81034c-3.2069,1.81034 -6.71121,2.71552 -10.51293,2.71552c-3.80172,0 -6.65948,-1.15086 -8.57328,-3.45259c-1.91379,-2.30172 -2.87069,-5.46983 -2.87069,-9.50431c0,-1.91379 0.32328,-3.9569 0.96983,-6.12931c0.64655,-2.17241 1.37069,-4.38362 2.17241,-6.63362c0.80172,-2.25 1.52586,-4.46121 2.17241,-6.63362c0.64655,-2.17241 0.96983,-4.18966 0.96983,-6.05172c0,-3.46552 -1.06034,-5.19828 -3.18103,-5.19828c-0.72414,0 -1.38362,0.2069 -1.97845,0.62069c-0.59483,0.41379 -1.18966,0.85345 -1.78448,1.31897c-0.59483,0.46552 -1.20259,0.90517 -1.82328,1.31897c-0.62069,0.41379 -1.3319,0.62069 -2.13362,0.62069c-0.80172,0 -1.20259,-0.69828 -1.20259,-2.09483c0,-2.84483 1.31897,-5.17241 3.9569,-6.98276c2.53448,-1.86207 5.56034,-2.7931 9.07759,-2.7931c3.51724,0 6.15517,1.2931 7.91379,3.87931c1.34483,1.91379 2.01724,4.08621 2.01724,6.51724c0,2.43103 -0.28448,4.77155 -0.85345,7.02155c-0.56897,2.25 -1.17672,4.56466 -1.82328,6.94397c-0.64655,2.37931 -1.25431,4.79741 -1.82328,7.25431c-0.56897,2.4569 -0.85345,4.97845 -0.85345,7.56466M26.40517,182.74138c2.06897,-1.7069 3.82759,-5.32759 5.27586,-10.86207c-2.74138,0.98276 -5.06897,1.78448 -6.98276,2.40517c-1.91379,0.62069 -3.49138,1.18966 -4.73276,1.7069c-1.24138,0.51724 -2.14655,1.02155 -2.71552,1.51293c-0.56897,0.49138 -0.85345,1.07328 -0.85345,1.74569c0,1.2931 0.77586,2.35345 2.32759,3.18103c1.55172,0.82759 3.02586,1.25431 4.42241,1.28017c1.39655,0.02586 2.48276,-0.29741 3.25862,-0.96983z" data-paper-data="{&quot;elementType&quot;:&quot;letter&quot;,&quot;baseline&quot;:75,&quot;baselineProportion&quot;:0.732421875,&quot;fontSize&quot;:100}"></path><path d="M105.23276,161.87069c-4.08621,4.81034 -8.98707,7.21552 -14.70259,7.21552c-5.71552,0 -9.99569,-1.46121 -12.84052,-4.38362c-2.84483,-2.92241 -4.24138,-6.55603 -4.18966,-10.90086c-0.05172,-6.15517 1.88793,-11.4569 5.81897,-15.90517c3.93103,-4.44828 9.07759,-6.67241 15.43966,-6.67241c2.89655,0 5.22414,0.36207 6.98276,1.08621c3.05172,1.24138 4.57759,2.40517 4.57759,3.49138c0,0.82759 -2.13362,1.25431 -6.40086,1.28017c-4.26724,0.02586 -7.83621,1.5 -10.7069,4.42241c-2.87069,2.92241 -4.30603,6.60776 -4.30603,11.05603c0,2.32759 0.68534,4.28017 2.05603,5.85776c1.37069,1.57759 3.31034,2.36638 5.81897,2.36638c2.50862,0 4.59052,-0.51724 6.24569,-1.55172c-3.67241,-2.48276 -5.50862,-6.07759 -5.50862,-10.78448c-0.05172,-2.48276 0.84052,-4.74569 2.67672,-6.78879c1.83621,-2.0431 4.18966,-3.07759 7.06034,-3.10345c2.87069,-0.02586 4.92672,0.76293 6.1681,2.36638c1.24138,1.60345 1.86207,3.65948 1.86207,6.1681c0,2.50862 -0.59483,5.15948 -1.78448,7.95259h0.46552c2.27586,-0.05172 4.24138,-0.85345 5.89655,-2.40517c0.62069,-0.62069 1.15086,-1.16379 1.59052,-1.62931c0.43966,-0.46552 0.89224,-0.69828 1.35776,-0.69828c0.72414,0 1.08621,0.85345 1.08621,2.56034c0,3.15517 -0.93103,5.52155 -2.7931,7.09914c-1.86207,1.57759 -3.9181,2.36638 -6.1681,2.36638c-2.25,0 -4.15086,-0.15517 -5.70259,-0.46552M104.53448,152.87069c0.87931,-1.86207 1.31897,-3.67241 1.31897,-5.43103c0,-1.75862 -0.56897,-2.63793 -1.7069,-2.63793c-0.46552,0 -0.85345,0.33621 -1.16379,1.00862c-0.31034,0.67241 -0.46552,1.31897 -0.46552,1.93966c0,2.06897 0.67241,3.77586 2.01724,5.12069z" data-paper-data="{&quot;elementType&quot;:&quot;letter&quot;,&quot;baseline&quot;:48,&quot;baselineProportion&quot;:0.9836065573770493,&quot;fontSize&quot;:100}"></path><path d="M155.50862,135.72414c0,-3.46552 2.68966,-5.19828 8.06897,-5.19828c1.34483,0 2.18534,0.43966 2.52155,1.31897c0.33621,0.87931 0.50431,2.22414 0.50431,4.03448c0,2.53448 -0.56897,6.46552 -1.7069,11.7931c-1.13793,5.32759 -1.68103,8.92241 -1.62931,10.78448c0,0.87931 0.28448,1.31897 0.85345,1.31897c0.77586,0 1.73276,-0.49138 2.87069,-1.47414c1.13793,-0.98276 2.27586,-2.05603 3.41379,-3.21983c1.13793,-1.16379 2.18534,-2.23707 3.14224,-3.21983c0.9569,-0.98276 1.61638,-1.47414 1.97845,-1.47414c0.72414,0 1.08621,0.87931 1.08621,2.63793c0,3.62069 -1.78448,7.11207 -5.35345,10.47414c-6,3.51724 -9.80172,5.27586 -11.40517,5.27586c-0.15517,0 -0.28448,-0.02586 -0.38793,-0.07759c-1.96552,0 -3.34914,-0.64655 -4.15086,-1.93966c-0.80172,-1.2931 -1.30603,-2.92241 -1.51293,-4.88793c-1.03448,1.91379 -2.4569,3.55603 -4.26724,4.92672c-1.81034,1.37069 -3.87931,2.05603 -6.2069,2.05603c-4.08621,0 -7.22845,-0.77586 -9.42672,-2.32759c-2.19828,-1.55172 -3.29741,-3.85345 -3.29741,-6.90517c0,-1.34483 0.19397,-2.58621 0.5819,-3.72414c0.38793,-1.13793 1.02155,-2.53448 1.90086,-4.18966l2.25,-19.08621c1.60345,-1.24138 3.90517,-1.86207 6.90517,-1.86207c2.37931,0 3.72414,1.55172 4.03448,4.65517c0.25862,2.53448 0.14224,4.79741 -0.34914,6.78879c-0.49138,1.99138 -1.15086,4.5 -1.97845,7.52586c-0.82759,3.02586 -1.24138,5.70259 -1.24138,8.03017c0,1.86207 1.16379,2.7931 3.49138,2.7931c2.53448,0 4.73276,-2.22414 6.59483,-6.67241c1.44828,-3.41379 2.43103,-7.21552 2.94828,-11.40517c-0.05172,-0.41379 -0.09052,-0.94397 -0.11638,-1.59052c-0.02586,-0.64655 -0.05172,-1.28017 -0.07759,-1.90086c-0.02586,-0.62069 -0.03879,-1.24138 -0.03879,-1.86207z" data-paper-data="{&quot;elementType&quot;:&quot;letter&quot;,&quot;baseline&quot;:48.900000000000006,&quot;baselineProportion&quot;:0.9898785425101214,&quot;fontSize&quot;:100}"></path><path d="M208.96552,162.80172c-2.58621,3.56897 -6.05172,5.35345 -10.39655,5.35345c-3.51724,0 -6.32328,-0.73707 -8.4181,-2.21121c-2.09483,-1.47414 -3.14224,-3.81466 -3.14224,-7.02155c0,-1.34483 0.19397,-2.58621 0.5819,-3.72414c0.38793,-1.13793 1.02155,-2.53448 1.90086,-4.18966l2.25,-18.38793c1.60345,-1.24138 3.77586,-1.86207 6.51724,-1.86207c2.32759,0 3.64655,1.55172 3.9569,4.65517c0.10345,0.93103 0.15517,2.03017 0.15517,3.29741c0,1.26724 -0.2069,2.59914 -0.62069,3.99569c-2.06897,7.13793 -3.07759,11.92241 -3.02586,14.35345c0,1.86207 1.08621,2.7931 3.25862,2.7931c2.17241,0 3.77586,-0.69828 4.81034,-2.09483c1.03448,-1.39655 1.91379,-3.12931 2.63793,-5.19828c1.34483,-5.74138 2.59914,-10.47414 3.76293,-14.19828c1.16379,-3.72414 1.90086,-5.94828 2.21121,-6.67241c0.51724,-1.24138 1.5,-1.88793 2.94828,-1.93966c1.44828,0.05172 2.81897,1.07328 4.11207,3.06466c1.2931,1.99138 1.93966,3.53017 1.93966,4.61638c-0.10345,3.62069 -2.35345,12.75 -6.75,27.38793c3.36207,-2.63793 6.69828,-5.87069 10.00862,-9.69828c1.13793,-1.34483 2.09483,-2.46983 2.87069,-3.375c0.77586,-0.90517 1.39655,-1.35776 1.86207,-1.35776c0.72414,0 1.08621,0.82759 1.08621,2.48276c0,3.25862 -1.82328,7.06034 -5.46983,11.40517c-3.64655,4.34483 -8.10776,7.73276 -13.38362,10.16379c-0.62069,2.06897 -1.2931,4.03448 -2.01724,5.89655c-0.72414,1.86207 -1.65517,3.49138 -2.7931,4.88793c-2.48276,3 -6.25862,4.5 -11.32759,4.5c-3.41379,0 -6.32328,-0.98276 -8.72845,-2.94828c-2.40517,-1.96552 -3.60776,-4.42241 -3.60776,-7.37069c0,-1.65517 0.55603,-2.97414 1.6681,-3.9569c1.11207,-0.98276 2.63793,-1.79741 4.57759,-2.44397c1.93966,-0.64655 4.20259,-1.21552 6.78879,-1.7069c2.58621,-0.49138 5.35345,-1.09914 8.30172,-1.82328c0.72414,-3.10345 1.21552,-5.32759 1.47414,-6.67241M198.41379,183.75c2.43103,0 4.62931,-2.12069 6.59483,-6.36207c-1.86207,0.36207 -3.51724,0.63362 -4.96552,0.81466c-1.44828,0.18103 -2.68966,0.34914 -3.72414,0.50431c-2.06897,0.31034 -3.07759,0.85345 -3.02586,1.62931c0,0.98276 0.5819,1.81034 1.74569,2.48276c1.16379,0.67241 2.28879,0.98276 3.375,0.93103z" data-paper-data="{&quot;elementType&quot;:&quot;letter&quot;,&quot;baseline&quot;:49.900000000000006,&quot;baselineProportion&quot;:0.6455368693402328,&quot;fontSize&quot;:100}"></path><path d="M292.60345,150.15517c0.93103,0 1.39655,1.18966 1.39655,3.56897c0,1.2931 -0.5431,2.85776 -1.62931,4.69397c-1.08621,1.83621 -2.49569,3.51724 -4.22845,5.0431c-1.73276,1.52586 -3.65948,2.78017 -5.78017,3.76293c-2.12069,0.98276 -4.18966,1.47414 -6.2069,1.47414c-2.84483,0 -4.7069,-2.32759 -5.58621,-6.98276c-3.10345,4.91379 -7.7069,7.37069 -13.81034,7.37069c-3.72414,0 -6.69828,-1.13793 -8.92241,-3.41379c-2.22414,-2.27586 -3.31034,-5.0431 -3.25862,-8.30172c0,-8.7931 2.92241,-15.72414 8.76724,-20.7931c4.03448,-3.46552 8.22414,-5.19828 12.56897,-5.19828c1.96552,0 3.51724,0.15517 4.65517,0.46552l1.78448,0.46552c2.12069,-9.98276 4.57759,-16.65517 7.37069,-20.01724c0.93103,-1.13793 1.86207,-1.7069 2.7931,-1.7069c1.5,0 2.89655,1.03448 4.18966,3.10345c1.13793,1.7069 1.7069,3.18103 1.7069,4.42241c0,1.24138 -0.18103,2.4569 -0.5431,3.64655c-0.36207,1.18966 -0.81466,2.28879 -1.35776,3.29741c-0.5431,1.00862 -1.15086,1.99138 -1.82328,2.94828c-0.67241,0.9569 -1.34483,1.92672 -2.01724,2.90948c-1.5,5.58621 -2.61207,11.84483 -3.33621,18.77586c-0.2069,1.96552 -0.31034,3.5431 -0.31034,4.73276c0,3.56897 0.59483,5.35345 1.78448,5.35345c1.34483,0 4.60345,-2.68966 9.77586,-8.06897c0.93103,-1.03448 1.60345,-1.55172 2.01724,-1.55172M255.98276,154.81034c0,3.98276 1.47414,5.97414 4.42241,5.97414c1.75862,0 3.53017,-0.67241 5.31466,-2.01724c1.78448,-1.34483 3.1681,-3.59483 4.15086,-6.75c0.10345,-4.65517 0.64655,-9.77586 1.62931,-15.36207c-4.13793,0.82759 -7.75862,2.84483 -10.86207,6.05172c-3.10345,3.2069 -4.65517,7.24138 -4.65517,12.10345z" data-paper-data="{&quot;elementType&quot;:&quot;letter&quot;,&quot;baseline&quot;:74.60000000000001,&quot;baselineProportion&quot;:0.9893899204244032,&quot;fontSize&quot;:100}"></path></g></g></g></g></g></svg>