<svg xmlns="http://www.w3.org/2000/svg" width="909" height="344" viewBox="0 0 909 344">
<defs>
<linearGradient id="a" x1="50%" x2="50%" y1="100%" y2="0%">
<stop offset="0%" stop-color="#EDF5FF"/>
<stop offset="100%" stop-color="#CFE4FF"/>
</linearGradient>
</defs>
<g fill="none" fill-rule="evenodd">
<g fill="url(#a)" transform="translate(.093 .413)">
<path d="M165.685 218.247H.276c0-91.353 74.056-165.409 165.41-165.409v165.41zM194.187 170.984v-45c11.313-12.57 11.313-12.57 24.135-27.655l54.554-63.856c12.067-13.827 16.844-20.112 23.38-29.916h51.537c-1.508 14.832-2.01 24.888-2.01 41.732v81.705h7.29c7.793 0 16.09-.754 24.888-2.01v45.754c-7.542-1.005-16.843-1.508-24.637-1.508h-7.542v12.57c0 14.078.503 21.369 2.011 30.922h-51.788c1.257-8.547 2.01-19.106 2.01-31.425v-12.319H226.87c-16.34 0-23.38.252-32.682 1.006zm104.08-42.487V99.335c0-11.313.503-25.14 1.509-36.202-5.028 7.04-8.8 12.067-15.587 20.615l-36.705 44.75h50.783zm182.266 89.75c-24.637 0-45.504-8.044-60.839-23.38-8.296-8.296-14.581-17.85-18.352-27.905-6.537-17.85-9.805-37.208-9.805-57.571 0-26.397 6.285-53.8 15.838-69.638C422.711 14.11 448.856.03 480.533.03c24.386 0 45.755 8.297 61.09 23.38 8.297 8.297 14.582 17.85 18.353 27.906 6.536 17.85 9.804 37.207 9.804 57.822 0 26.397-6.285 54.052-15.838 69.89-15.084 25.14-41.481 39.218-73.409 39.218zm0-175.729c-23.632 0-37.459 23.883-37.459 64.862 0 45 12.822 68.13 37.71 68.13 24.638 0 37.208-22.627 37.208-67.376 0-42.99-13.073-65.616-37.459-65.616zm102.32 128.466v-45c11.313-12.57 11.313-12.57 24.135-27.655l54.554-63.856c12.067-13.827 16.844-20.112 23.38-29.916h51.537c-1.508 14.832-2.01 24.888-2.01 41.732v81.705h7.29c7.793 0 16.09-.754 24.888-2.01v45.754c-7.542-1.005-16.843-1.508-24.637-1.508h-7.542v12.57c0 14.078.503 21.369 2.011 30.922h-51.788c1.257-8.547 2.01-19.106 2.01-31.425v-12.319h-71.146c-16.34 0-23.38.252-32.682 1.006zm104.08-42.487V99.335c0-11.313.503-25.14 1.509-36.202-5.028 7.04-8.8 12.067-15.587 20.615l-36.705 44.75h50.783zM797.481 218.247V107.303c61.273 0 110.945 49.672 110.945 110.944H797.48z"/>
</g>
<g transform="translate(441 199.432)">
<ellipse cx="42.642" cy="82.713" fill="#DCEBFF" rx="38.12" ry="5.963"/>
<g transform="translate(34.522 .458)">
<path fill="#24364A" d="M16.882 24.736l-3.794.153s.284 4.562-1.888 8.045c-2.171 3.484-4.447 9.948 5.123 10.701 6.38.502 6.566-5.797.56-18.899z"/>
<path fill="#24364A" d="M13.277 20.892l7.606.262-.89 4.235-6.833.14z"/>
<path fill="#19263A" d="M12.9 25.517a2.318 2.318 0 1 1 .564-4.6 2.318 2.318 0 0 1-.565 4.6z"/>
<path fill="#F5B36C" d="M28.444 18.811l-5.009-9.973-1.254 1.252 3.302 9.859z"/>
<path fill="#794CFF" d="M22.583 22.278l3.163-1.097-.626-1.429 3.244-1.11.833 2.072c.756 2.044-.478 4.16-3.704 6.347-3.225 2.187-4.195.593-2.91-4.783z"/>
<path fill="#24364A" d="M32.167 80.34v.552c2.082.762 3.467 1.527 4.156 2.298.613.685-1.515.846-6.384.482a2.392 2.392 0 0 1-1.992-3.391c.572-1.233 1.978-1.214 4.22.058zM5.092 75.82l-.391.392c1.113 1.992 1.319 4.042 1.052 4.807-.283.811-1.855-.653-4.717-4.392a2.477 2.477 0 0 1 1.114-3.831c1.276-.468 2.256.54 2.942 3.025z"/>
<path fill="#24364A" d="M16.613 48.574l8.534 13.52a11.2 11.2 0 0 1 1.704 5.22l.895 13.153h4.384l.771-13.308a16.8 16.8 0 0 0-.936-6.583l-4.493-12.681-10.86.68z"/>
<path fill="#0F1825" d="M26.657 64.488l-5.017-7.95 2.2-4.324 2.832 12.26-.015.014z"/>
<path fill="#24364A" d="M25.616 47.895c-3.563 10.33-5.711 15.973-6.445 16.926-.733.953-5.422 4.647-14.068 11.082l-2.75-3.32 10.217-9.29a5.6 5.6 0 0 0 1.833-4.154l-.024-11.244h11.237z"/>
<g>
<path fill="#24364A" d="M25.788 34.957c-.383 1.644-.819 2.934-1.308 3.869-.489.935-1.152 1.02-1.99.255 1.168-.978 1.953-2.527 2.354-4.647.402-2.12.716-1.945.944.523z"/>
<path fill="#19263A" d="M23.238 22.245c1.631.227 2.802 1.224 3.511 2.99 1.065 2.649-.336 9.812-.813 9.978-.476.166-1.532.565-2.115-1.08-.389-1.097-1.092-4.61-2.11-10.537-.27-.24-.35-.57-.238-.986.112-.417.7-.539 1.765-.365z"/>
</g>
<path fill="#794CFF" d="M22.752 22.654c1.575.403 2.838 1.766 3.79 4.089 1.426 3.484.42 7.931.502 11.426.083 3.496.68 9.121.68 10.163-3.957 2.05-8.585 2.05-13.887 0 .843-5.02 1.238-9.956 1.186-14.806-.06-5.578 1.136-8.941 2.614-10.872.3-.391 2.005-.391 5.115 0z"/>
<g>
<path fill="#FECE9A" d="M19.852 7.403c1.102-.527 2.231-.333 3.389.58l-1.138.264-2.251-.844z"/>
<path fill="#17005C" d="M25.162 13.301c1.638-.957 2.383-2.448 2.234-4.472-.223-3.036-1.783-.086-2.715.196-.931.283.586-1.418-.363-1.726-.95-.308-.933.456-4.08.437-3.148-.02-3.766 1.396-3.333 2.682-2.08 1.225-2.167 3.78-.262 7.667l1.94 2.126.99-3.378.948-.632 4.347-2.9h.294z"/>
<g stroke="#24364A" stroke-linecap="round" stroke-linejoin="round">
<path d="M20.492.787v3.086M15.367 3.39l2.182 2.183M23.436 5.573l2.182-2.182"/>
</g>
<path fill="#FECE9A" d="M21.686 7.682l-.49.237.07.643a.241.241 0 0 1-.397.21c-.195-.17-.24-.865-.149-1.09.091-.225.266-.249.685-.235.418.013 1.197-.087 1.21.095a4.085 4.085 0 0 1-.516.104l-.413.036z"/>
<path fill="#FECE9A" d="M21.064 7.705l-.45.089-.154.681a.252.252 0 0 1-.452.09c-.148-.211-.024-.897.12-1.093.142-.197.317-.178.72-.063.403.114.771.353.609.33a3.705 3.705 0 0 0-.393-.034z"/>
<path fill="#FECE9A" d="M20.377 7.668l-.45.088-.154.681a.252.252 0 0 1-.452.09c-.148-.21-.023-.896.12-1.093.142-.196.317-.177.72-.063.404.115.771.354.609.33a3.705 3.705 0 0 0-.393-.033z"/>
<path fill="#FFC38C" d="M22.562 20.912l.141 2.02c.064.494.046.768-.052.823-1.369.753-4.036-.165-5.01-1.054l.65-4.326c-1.498-.175-2.12-.82-1.867-1.934.38-1.673 2.372-1.504 2.372-.118l.36-1.968c.682 0 1.244-.536 1.276-1.218l.052-1.106c2.052-.338 3.537-.362 4.456-.071.946 3.625 1.44 8.952-2.378 8.952z"/>
<path fill="#24364A" d="M20.294 34.957c-.383 1.644-.819 2.934-1.308 3.869-.489.935-1.152 1.02-1.99.255 1.168-.978 1.953-2.527 2.354-4.647.402-2.12.716-1.945.944.523z"/>
<path fill="#19263A" d="M17.744 22.245c1.631.227 2.802 1.224 3.511 2.99 1.065 2.649-.336 9.812-.813 9.978-.476.166-1.532.565-2.115-1.08-.389-1.097-1.092-4.61-2.11-10.537-.27-.24-.35-.57-.238-.986.112-.417.7-.539 1.765-.365zM22.562 20.915c.032.548.064 1.042.098 1.482-1.803-.38-2.854-1.485-3.152-3.313.719 1.066 1.737 1.677 3.054 1.831z"/>
</g>
<rect width="1.491" height="41.751" x="16.522" y="31.507" fill="#17005C" rx=".746" transform="rotate(45 17.268 52.383)"/>
<path fill="#FFC38C" d="M20.453 38.144l6.348.4 1.188-.817a3.557 3.557 0 0 1 1.908-.626l.189-.006a1.446 1.446 0 0 1 1.29.712.49.49 0 0 1-.421.738h-.606l.464.526a1.218 1.218 0 0 1-.158 1.761l-.333.264c-.418.33-.98.413-1.475.216l-1.319-.524-7.912 1.178.837-3.822z"/>
<path fill="#794CFF" d="M19.18 24.321c.847 2.433.818 5.417.205 8.096l-1.092 4.768 2.487.598c0 1.528-.2 2.948-.602 4.26-7.315-.44-7.29-2.303-6.69-10.59.323-4.463 1.816-6.76 3.026-7.874.348-.32 2.063-.987 2.666.742z"/>
</g>
<path fill="#0095DC" d="M22.601 24.994c1.792.034 3.407 1.34 4.846 3.92 1.438 2.58 2.617 4.24 3.536 4.98l3.752.193-.961 2.518-6.327.674-3.157-7.886-1.689-4.4z"/>
<g fill="#24364A">
<path d="M22.057 24.691c1.631.228 2.802 1.225 3.511 2.99 1.065 2.65-.336 9.812-.813 9.979-.477.166-1.532.565-2.115-1.08-.389-1.097-1.092-4.61-2.11-10.537-.27-.241-.35-.57-.238-.987.111-.417.7-.538 1.765-.365z"/>
<path d="M23.468 36.72c-.468 2.593-2.046 4.365-4.735 5.315l-.676-1.35c1.97-.614 3.57-2.543 4.8-5.785l.571.846.04.973z"/>
</g>
<path fill="#24364A" d="M27.68 80.655v.553c2.081.761 3.467 1.527 4.156 2.298.612.685-1.516.845-6.384.481a2.392 2.392 0 0 1-1.992-3.39c.571-1.233 1.978-1.214 4.22.058zM18.494 80.655v.553c1.21.761 2.159 1.527 2.848 2.298.6.67-1.095.838-5.083.504a2.41 2.41 0 0 1-1.985-3.413c.572-1.233 1.978-1.214 4.22.058z"/>
<path fill="#24364A" d="M19.53 50.364l3.257 10.732a11.2 11.2 0 0 1 .482 3.22l.047 16.467H27.7l.876-16.764a16.8 16.8 0 0 0-.184-3.504L26.443 48.21l-6.913 2.153z"/>
<path fill="#0F1825" d="M23.12 62.527a11.2 11.2 0 0 0-.333-1.43l-2.449-8.07 1.071-1.351 1.85 11.031-.139-.18z"/>
<path fill="#24364A" d="M21.763 49.672l-.721 13.414-2.509 17.644h-4.418l1.051-17.644-1.565-14.439zM14.566 27.232c6.006 13.101 5.82 19.401-.56 18.899a47.844 47.844 0 0 0-1.42-.058 5.821 5.821 0 0 1-5.631-5.818v-1.844a3.816 3.816 0 0 1 3.816-3.817v-7.209l3.795-.153z"/>
<path fill="#24364A" d="M10.96 23.388l7.606.261-.89 4.236-6.833.14z"/>
<path fill="#19263A" d="M10.583 28.013a2.318 2.318 0 1 1 .565-4.601 2.318 2.318 0 0 1-.565 4.6z"/>
<path fill="#00ADFF" d="M21.78 25.176c1.574.403 2.838 1.765 3.789 4.088 1.427 3.485.42 7.932.503 11.427.082 3.495.679 7.09.679 8.132-4.121 2.223-8.58 2.223-13.376 0 .526-5.196.874-9.392 1.042-12.59.293-5.55-1.098-9.668 1.086-10.79 1.456-.749 3.548-.838 6.276-.267z"/>
<path fill="#19263A" d="M19.908 12.766a6.745 6.745 0 0 1 2.387-.424c2.833 0 5.13 1.656 5.13 3.698 0 .956-.503 1.827-1.329 2.484-.125.145-.263.29-.413.436-.824.8-1.766 1.482-2.825 2.048-.805 1.008-1.973 1.642-3.273 1.642-.337 0-.665-.042-.98-.123-.176.038-.354.074-.534.108a9.564 9.564 0 0 1-.545-.559c-1.392-.83-2.34-2.478-2.34-4.374 0-2.734 1.97-4.95 4.399-4.95.109 0 .216.005.323.014z"/>
<path fill="#FAFAFF" d="M16.761 25.007c3.134 5.412 5.032 9.2 5.694 11.365.253.825.569 3.09.782 3.09.214 0 .385-2.206.41-2.857.2-5.251-.41-7.893-2.084-10.26-1.812-2.564-3.413-3.01-4.802-1.338z"/>
<path fill="#FFC38C" d="M21.5 24.755l.394 1.875.173.508c-3.195-.526-4.975-1.239-5.338-2.137l1.303-3.802c-1.206.093-1.836-1.34-1.303-2.352.8-1.517 2.68-.838 2.322.501l.886-1.496c.756.092 1.135-.457 1.135-1.648.862 1.61 4.76 1.445 4.76 1.787 0 3.928-1.383 7.407-4.331 6.764z"/>
<path fill="#24364A" d="M21.5 24.756l.318 1.513c-1.77-.76-2.558-1.762-2.36-3.009.672.758 1.353 1.257 2.043 1.496z"/>
<g>
<path fill="#FFE5BC" d="M33.437 28.101l2.756 1.146-2.47 11.912-2.51-1.282-1.735 2.296-5.3-1.381 2.225-11.775 5.546 1.244z"/>
<path fill="#FFC38C" d="M33.437 28.101l-2.225 11.776-1.734 2.296L31.95 30.26z"/>
<path fill="#FFE5BC" d="M33.437 28.101l2.756 1.146-2.47 11.912-2.51-1.282z"/>
<path fill="#FFC38C" d="M24.808 37.636l-1.106-1.335.606-.843c.315-.757.718-1.32 1.211-1.686l-.179 1.002a.895.895 0 0 0 .084.147c.223.008.445.02.667.039.699.057 1.368-.213 2.008-.81.288.01.377.205.268.585l.326-.227a.269.269 0 0 1 .398.109.365.365 0 0 1-.14.462l-.168.103a.346.346 0 0 1-.074.532c-.49.296-1.183.613-2.077.952a1.784 1.784 0 0 1-.027.054c.221.153.838.021 1.85-.397.196-.09.29-.038.283.154-.01.288-.154.283-.303.422-1.27.627-2.48.873-3.627.737z"/>
<path fill="#FFC38C" d="M24.844 37.614s-1.687.622-3.025.477c-1.338-.146-1.35-.94-.038-2.382l2.638-.196.425 2.1z"/>
</g>
<g fill="#24364A">
<path d="M16.825 24.691c1.63.228 2.801 1.225 3.51 2.99 1.065 2.65-.336 9.812-.812 9.979-.477.166-1.532.565-2.115-1.08-.39-1.097-1.092-4.61-2.11-10.537-.271-.241-.35-.57-.239-.987.112-.417.7-.538 1.766-.365z"/>
<path d="M18.235 36.72c-.468 2.593-2.046 4.365-4.734 5.315l-.677-1.35c1.97-.614 3.57-2.543 4.801-5.785l.571.846.04.973z"/>
</g>
<path fill="#00ADFF" d="M17.752 26.453c.62 1.78.453 4.825-.501 9.135l6.402-.243c.397.991.523 2.773-.253 3.036-.776.263-9.932 1.92-10.775.268-.843-1.653-.052-10.121 2.31-12.847.369-.425 2.156-1.247 2.817.65z"/>
<path fill="#FFF" d="M45.867 29.4a.306.306 0 0 0 .306-.307c0-.112-.102-.368-.306-.765-.204.397-.306.653-.306.765 0 .17.137.306.306.306z"/>
</g>
<path fill="#66D4FF" d="M611.904 248.21h-63.536c0-17.546 14.223-31.769 31.768-31.769s31.768 14.223 31.768 31.769z"/>
<path fill="#DCEBFF" d="M837.276 286.507H628.227c45.912-12.922 129.928-23.397 187.655-23.397 57.727 0 67.305 10.475 21.394 23.397z"/>
<path fill="#00ADFF" d="M836.638 286.507H627.59c0-57.727 46.797-104.524 104.524-104.524 57.727 0 104.524 46.797 104.524 104.524z"/>
<path fill="#66D4FF" d="M693.055 271.252a3.926 3.926 0 1 1-7.852 0 3.926 3.926 0 0 1 7.852 0zm15.704 0a3.926 3.926 0 1 1-7.852 0 3.926 3.926 0 0 1 7.852 0zm0-15.704a3.926 3.926 0 1 1-7.852 0 3.926 3.926 0 0 1 7.852 0zm15.705 15.704a3.926 3.926 0 1 1-7.853 0 3.926 3.926 0 0 1 7.853 0zm0-15.704a3.926 3.926 0 1 1-7.853 0 3.926 3.926 0 0 1 7.853 0zm0-15.705a3.926 3.926 0 1 1-7.853 0 3.926 3.926 0 0 1 7.853 0zm15.704 31.409a3.926 3.926 0 1 1-7.852 0 3.926 3.926 0 0 1 7.852 0zm0-15.704a3.926 3.926 0 1 1-7.852 0 3.926 3.926 0 0 1 7.852 0zm0-15.705a3.926 3.926 0 1 1-7.852 0 3.926 3.926 0 0 1 7.852 0zm0-15.704a3.926 3.926 0 1 1-7.852 0 3.926 3.926 0 0 1 7.852 0zm15.704 47.113a3.926 3.926 0 1 1-7.852 0 3.926 3.926 0 0 1 7.852 0zm0-15.704a3.926 3.926 0 1 1-7.852 0 3.926 3.926 0 0 1 7.852 0zm0-15.705a3.926 3.926 0 1 1-7.852 0 3.926 3.926 0 0 1 7.852 0zm0-15.704a3.926 3.926 0 1 1-7.852 0 3.926 3.926 0 0 1 7.852 0zm0-15.704a3.926 3.926 0 1 1-7.852 0 3.926 3.926 0 0 1 7.852 0z"/>
<path fill="#0197DE" d="M667.609 286.507h-40.02c0-8.63 1.047-17.016 3.019-25.038 15.053 3.871 28.046 12.877 37 25.038z"/>
<path fill="#DCEBFF" d="M669.292 319.928H536.186c29.233-8.227 82.728-14.897 119.484-14.897s42.855 6.67 13.622 14.897z"/>
<path fill="#FF6E6E" d="M668.886 319.928H535.78c0-36.756 29.797-66.553 66.553-66.553s66.553 29.797 66.553 66.553z"/>
<path fill="#DCEBFF" d="M706.764 343.932h-69.656c15.298-4.306 43.293-7.796 62.528-7.796s22.426 3.49 7.128 7.796z"/>
<path fill="#FF95D7" d="M706.552 343.932h-69.657c0-19.235 15.594-34.828 34.829-34.828s34.828 15.593 34.828 34.828z"/>
<g>
<path fill="#DCEBFF" d="M410.888 248.951H277.782c29.233-8.227 82.727-14.897 119.484-14.897 36.756 0 42.855 6.67 13.622 14.897z"/>
<path fill="#FF6E6E" d="M410.482 248.951H277.376c0-36.756 29.796-66.553 66.553-66.553 36.756 0 66.553 29.797 66.553 66.553z"/>
<path fill="#DCEBFF" d="M429.394 268.202h-21.295c-7.226 0 3.917-3.044 1.972-4.39-3.18-2.2-14.868-3.227-2.624-3.946 4.903-.288 9.607-.443 13.919-.443 21.662 0 25.256 3.93 8.028 8.78z"/>
<path fill="#FF95D7" d="M429.373 268.202h-51.508c0-14.224 11.53-25.754 25.754-25.754 14.224 0 25.754 11.53 25.754 25.754z"/>
</g>
<path fill="#DCEBFF" d="M794 319.973V303.54a765.84 765.84 0 0 1 13.97-.133c57.727 0 67.306 7.416 21.394 16.565H794z"/>
<path fill="#6937FF" d="M766.286 319.928v-62.993c34.79 0 62.993 28.203 62.993 62.993h-62.993z"/>
<g>
<path fill="#DCEBFF" d="M366.823 319.629H94.711c59.762-16.82 169.123-30.455 244.265-30.455 75.141 0 87.61 13.635 27.847 30.455z"/>
<path fill="#6937FF" d="M365.994 319.629H93.88c0-75.142 60.915-136.056 136.056-136.056 75.142 0 136.057 60.914 136.057 136.056z"/>
<path fill="#794CFF" d="M100.929 276.291l43.337 43.338H111.72l-16.81-16.81a135.249 135.249 0 0 1 6.02-26.528zm23.062-42.032l66.387 66.387-16.274 16.273-63.214-63.213a136.31 136.31 0 0 1 13.101-19.447zm34.596-30.5l64.338 64.34-16.273 16.273-66.75-66.75a136.536 136.536 0 0 1 18.685-13.862zm47.068-18.026l49.818 49.818-16.274 16.274-58.91-58.91a135.049 135.049 0 0 1 25.366-7.182zm71.264 6.169l11.101 11.102-16.274 16.273-35.564-35.564c14.26.645 27.95 3.484 40.737 8.189z"/>
<path fill="#5A2BE5" d="M259.937 319.629h-80.916c11.07-34.114 43.113-58.777 80.916-58.777v58.777z"/>
<path fill="#DCEBFF" d="M259.937 319.629h-94.486c12.927-39.834 20.43 20.334 64.574 20.334l29.912-20.334z"/>
<path fill="#00ADFF" d="M229.937 340.312h-99.316c0-54.85 44.465-99.316 99.316-99.316v99.316z"/>
</g>
</g>
</svg>
