<?xml version="1.0" standalone="no"?>
<!DOCTYPE svg PUBLIC "-//W3C//DTD SVG 20010904//EN"
 "http://www.w3.org/TR/2001/REC-SVG-20010904/DTD/svg10.dtd">
<svg version="1.0" xmlns="http://www.w3.org/2000/svg"
 width="64.000000pt" height="64.000000pt" viewBox="0 0 64.000000 64.000000"
 preserveAspectRatio="xMidYMid meet">

<g transform="translate(0.000000,64.000000) scale(0.100000,-0.100000)"
fill="#000000" stroke="none">
<path d="M229 590 c-55 -29 -108 -97 -127 -162 -9 -32 -22 -58 -28 -58 -21 0
-44 -37 -44 -72 0 -36 24 -68 51 -68 8 0 24 -19 36 -43 62 -127 180 -179 288
-127 52 25 76 51 113 119 16 29 40 58 53 65 48 24 50 109 3 130 -14 6 -27 28
-38 61 -19 61 -74 128 -127 155 -50 26 -132 26 -180 0z m182 -38 c29 -19 54
-47 74 -83 27 -49 30 -63 30 -144 0 -73 -4 -98 -22 -130 -23 -44 -81 -104 -70
-72 4 10 0 34 -8 53 -17 41 -68 67 -115 58 -40 -8 -80 -57 -80 -97 l0 -30 -26
24 c-52 48 -69 96 -69 194 0 81 3 95 30 144 39 70 99 111 165 111 33 0 58 -8
91 -28z m165 -228 c4 -17 1 -31 -10 -42 -15 -15 -16 -13 -16 26 0 47 16 56 26
16z m-486 -26 c0 -39 -1 -41 -16 -26 -11 11 -14 25 -10 42 10 40 26 31 26 -16z
m282 -115 c39 -35 8 -113 -46 -113 -32 0 -76 37 -76 64 0 12 7 32 16 44 19 27
78 30 106 5z"/>
<path d="M223 412 c-29 -2 -43 -8 -43 -18 0 -10 13 -14 50 -14 37 0 50 4 50
14 0 20 -7 22 -57 18z"/>
<path d="M360 395 c0 -10 10 -15 28 -15 15 0 37 -3 50 -6 18 -5 22 -2 22 15 0
19 -6 21 -50 21 -38 0 -50 -4 -50 -15z"/>
<path d="M217 324 c-14 -15 -6 -34 14 -34 14 0 19 5 17 17 -3 18 -20 27 -31
17z"/>
<path d="M387 324 c-9 -10 4 -34 19 -34 8 0 14 9 14 20 0 19 -19 27 -33 14z"/>
<path d="M290 270 c0 -16 7 -20 30 -20 23 0 30 4 30 20 0 16 -7 20 -30 20 -23
0 -30 -4 -30 -20z"/>
<path d="M285 171 c-5 -9 20 -41 31 -41 16 0 44 23 44 35 0 17 -65 22 -75 6z"/>
</g>
</svg>
